<svg width="400" height="400" viewBox="0 0 400 400" fill="none" xmlns="http://www.w3.org/2000/svg">
<path d="M289.1 161.57L189.85 146.89" stroke="#6A0BFF" stroke-width="12" stroke-miterlimit="10" stroke-linecap="round" stroke-linejoin="round"/>
<path d="M303.86 332.61H67.29C61.61 332.61 57 328 57 322.32V117.68C57 112 61.61 107.39 67.29 107.39H104" stroke="#191919" stroke-width="12" stroke-miterlimit="10" stroke-linecap="round" stroke-linejoin="round"/>
<path d="M170.29 58.6201L155 165H111L102 65.8901L170.29 58.6201Z" stroke="#6A0BFF" stroke-width="12" stroke-miterlimit="10" stroke-linecap="round" stroke-linejoin="round"/>
<path d="M164 99.7002L137.55 102.55" stroke="#6A0BFF" stroke-width="12" stroke-miterlimit="10" stroke-linecap="round" stroke-linejoin="round"/>
<path d="M160 129.7L140.7 132.09" stroke="#6A0BFF" stroke-width="12" stroke-miterlimit="10" stroke-linecap="round" stroke-linejoin="round"/>
<path d="M330.27 111.73L323 165H155L172.61 42.9299L293.56 60.8199L330.27 111.73Z" stroke="#6A0BFF" stroke-width="12" stroke-miterlimit="10" stroke-linecap="round" stroke-linejoin="round"/>
<path d="M229.03 92.58L198.27 88.03" stroke="#6A0BFF" stroke-width="12" stroke-miterlimit="10" stroke-linecap="round" stroke-linejoin="round"/>
<path d="M293.1 132.57L193.85 117.89" stroke="#6A0BFF" stroke-width="12" stroke-miterlimit="10" stroke-linecap="round" stroke-linejoin="round"/>
<path d="M330.27 111.73L286.98 105.32L293.56 60.8198L330.27 111.73Z" fill="white" stroke="#6A0BFF" stroke-width="12" stroke-miterlimit="10" stroke-linecap="round" stroke-linejoin="round"/>
<path d="M303.86 332.61H67.29C61.61 332.61 57 328 57 322.32L99.86 174.58C102.28 167.95 105.47 165.29 111.15 165.29H346.72C352.4 165.29 357.01 169.9 357.01 175.58L315.15 324.32C312.44 330.01 309.54 332.61 303.86 332.61Z" stroke="#191919" stroke-width="12" stroke-miterlimit="10" stroke-linecap="round" stroke-linejoin="round"/>
</svg>
