<svg width="400" height="400" viewBox="0 0 400 400" fill="none" xmlns="http://www.w3.org/2000/svg">
<path d="M316.1 75.04L249.01 81.61C245.6 81.94 242.4 83.45 239.98 85.87L86.7 239.17C84.66 241.2 83.35 243.68 82.75 246.3L49.12 176.25C45.58 168.87 48.69 160.03 56.07 156.49L251.5 62.69C254.59 61.2 258.11 60.84 261.43 61.65L316.1 75.04Z" stroke="#6A0BFF" stroke-width="12" stroke-miterlimit="10" stroke-linecap="round" stroke-linejoin="round"/>
<path d="M161.03 334.44L86.69 260.1C80.91 254.32 80.91 244.94 86.69 239.16L239.98 85.87C242.4 83.45 245.6 81.94 249.01 81.6L331.41 73.54C340.7 72.63 348.5 80.43 347.59 89.72L339.53 172.12C339.2 175.53 337.69 178.72 335.26 181.15L181.97 334.44C176.19 340.22 166.81 340.22 161.03 334.44Z" stroke="#191919" stroke-width="12" stroke-miterlimit="10"/>
<path d="M313.73 118.13C319.297 118.13 323.81 113.617 323.81 108.05C323.81 102.483 319.297 97.97 313.73 97.97C308.163 97.97 303.65 102.483 303.65 108.05C303.65 113.617 308.163 118.13 313.73 118.13Z" fill="#191919"/>
</svg>
