<svg width="400" height="400" viewBox="0 0 400 400" fill="none" xmlns="http://www.w3.org/2000/svg">
<path d="M249.43 77.0099L179.46 106.67H98.19L223.1 45.8099C228.06 43.3899 234.05 45.4499 236.47 50.4099L249.43 77.0099Z" stroke="#6A0BFF" stroke-width="12" stroke-miterlimit="10" stroke-linecap="round" stroke-linejoin="round"/>
<path d="M310.52 106.67H179.46L281.35 63.4799C286.44 61.3299 292.31 63.6999 294.46 68.7899L310.52 106.67Z" stroke="#6A0BFF" stroke-width="12" stroke-miterlimit="10" stroke-linecap="round" stroke-linejoin="round"/>
<path d="M350 257.93V316.67C350 327.71 341.05 336.67 330 336.67H70C58.95 336.67 50 327.71 50 316.67V126.67C50 115.62 58.95 106.67 70 106.67H330C341.05 106.67 350 115.62 350 126.67V185.41" stroke="#191919" stroke-width="12" stroke-miterlimit="10" stroke-linecap="round" stroke-linejoin="round"/>
<path d="M353.09 257.93H274.61C254.58 257.93 238.35 241.7 238.35 221.67C238.35 201.64 254.58 185.41 274.61 185.41H353.09C360.58 185.41 366.65 191.48 366.65 198.97V244.36C366.65 251.85 360.58 257.93 353.09 257.93Z" stroke="#191919" stroke-width="12" stroke-miterlimit="10" stroke-linecap="round" stroke-linejoin="round"/>
<path d="M274.53 237.39C283.212 237.39 290.25 230.352 290.25 221.67C290.25 212.988 283.212 205.95 274.53 205.95C265.848 205.95 258.81 212.988 258.81 221.67C258.81 230.352 265.848 237.39 274.53 237.39Z" stroke="#6A0BFF" stroke-width="12" stroke-miterlimit="10" stroke-linecap="round" stroke-linejoin="round"/>
</svg>
