<svg width="400" height="400" viewBox="0 0 400 400" fill="none" xmlns="http://www.w3.org/2000/svg">
<path d="M162.08 227.81L224.19 277.87" stroke="#191919" stroke-width="12" stroke-miterlimit="10" stroke-linecap="round" stroke-linejoin="round"/>
<path d="M224.19 122.13L162.08 172.19" stroke="#191919" stroke-width="12" stroke-miterlimit="10" stroke-linecap="round" stroke-linejoin="round"/>
<path d="M258.69 138.64C283.167 138.64 303.01 118.797 303.01 94.32C303.01 69.8427 283.167 50 258.69 50C234.213 50 214.37 69.8427 214.37 94.32C214.37 118.797 234.213 138.64 258.69 138.64Z" stroke="#6A0BFF" stroke-width="12" stroke-miterlimit="10" stroke-linecap="round" stroke-linejoin="round"/>
<path d="M258.69 350C283.167 350 303.01 330.157 303.01 305.68C303.01 281.203 283.167 261.36 258.69 261.36C234.213 261.36 214.37 281.203 214.37 305.68C214.37 330.157 234.213 350 258.69 350Z" stroke="#6A0BFF" stroke-width="12" stroke-miterlimit="10" stroke-linecap="round" stroke-linejoin="round"/>
<path d="M127.57 244.32C152.047 244.32 171.89 224.477 171.89 200C171.89 175.523 152.047 155.68 127.57 155.68C103.093 155.68 83.25 175.523 83.25 200C83.25 224.477 103.093 244.32 127.57 244.32Z" stroke="#6A0BFF" stroke-width="12" stroke-miterlimit="10" stroke-linecap="round" stroke-linejoin="round"/>
</svg>
