<svg width="400" height="400" viewBox="0 0 400 400" fill="none" xmlns="http://www.w3.org/2000/svg">
<path d="M62.27 153.07H104.74C107.63 153.07 110.42 152.05 112.63 150.2L182.35 91.64C190.33 84.94 202.51 90.61 202.51 101.04V298.96C202.51 309.38 190.33 315.06 182.35 308.36L112.63 249.8C110.42 247.94 107.63 246.93 104.74 246.93H62.27C55.49 246.93 50 241.44 50 234.66V165.34C50 158.57 55.49 153.07 62.27 153.07Z" stroke="#191919" stroke-width="12" stroke-miterlimit="10" stroke-linecap="round" stroke-linejoin="round"/>
<path d="M244.59 159.69C256.12 168.29 263.72 183.02 263.72 199.75C263.72 216.85 255.78 231.87 243.82 240.37" stroke="#6A0BFF" stroke-width="12" stroke-miterlimit="10" stroke-linecap="round" stroke-linejoin="round"/>
<path d="M272.82 127.56C293.53 143 307.18 169.47 307.18 199.53C307.18 230.25 292.92 257.22 271.44 272.5" stroke="#6A0BFF" stroke-width="12" stroke-miterlimit="10" stroke-linecap="round" stroke-linejoin="round"/>
<path d="M301.86 93.94C331 117.38 350 155.79 350 199.18C350 243.65 330.06 282.87 299.69 306.12" stroke="#6A0BFF" stroke-width="12" stroke-miterlimit="10" stroke-linecap="round" stroke-linejoin="round"/>
</svg>
