<svg width="400" height="400" viewBox="0 0 400 400" fill="none" xmlns="http://www.w3.org/2000/svg">
<path d="M303.86 307.61H67.29C61.61 307.61 57 303 57 297.32V92.6799C57 86.9999 61.61 82.3899 67.29 82.3899H135.48C139.53 82.3899 143.19 84.7599 144.86 88.4499L152.65 105.73C154.31 109.42 157.98 111.79 162.03 111.79H303.87C309.55 111.79 314.16 116.4 314.16 122.08V140.31" stroke="#191919" stroke-width="12" stroke-miterlimit="10" stroke-linecap="round" stroke-linejoin="round"/>
<path d="M303.86 307.61H67.29C61.61 307.61 57 303 57 297.32L99.86 149.58C102.28 142.95 105.47 140.29 111.15 140.29H346.72C352.4 140.29 357.01 144.9 357.01 150.58L315.15 299.32C312.44 305.01 309.54 307.61 303.86 307.61Z" stroke="#191919" stroke-width="12" stroke-miterlimit="10" stroke-linecap="round" stroke-linejoin="round"/>
</svg>
