<svg width="400" height="400" viewBox="0 0 400 400" fill="none" xmlns="http://www.w3.org/2000/svg">
<path d="M355 116.92H147.65" stroke="#191919" stroke-width="12" stroke-miterlimit="10" stroke-linecap="round" stroke-linejoin="round"/>
<path d="M88.4 116.92H55" stroke="#191919" stroke-width="12" stroke-miterlimit="10" stroke-linecap="round" stroke-linejoin="round"/>
<path d="M355 283.08H226.64" stroke="#191919" stroke-width="12" stroke-miterlimit="10" stroke-linecap="round" stroke-linejoin="round"/>
<path d="M167.39 283.08H55" stroke="#191919" stroke-width="12" stroke-miterlimit="10" stroke-linecap="round" stroke-linejoin="round"/>
<path d="M233.46 200H55" stroke="#191919" stroke-width="12" stroke-miterlimit="10" stroke-linecap="round" stroke-linejoin="round"/>
<path d="M355 200H292.71" stroke="#191919" stroke-width="12" stroke-miterlimit="10" stroke-linecap="round" stroke-linejoin="round"/>
<path d="M118.02 146.54C134.379 146.54 147.64 133.279 147.64 116.92C147.64 100.561 134.379 87.3 118.02 87.3C101.661 87.3 88.4 100.561 88.4 116.92C88.4 133.279 101.661 146.54 118.02 146.54Z" stroke="#6A0BFF" stroke-width="12" stroke-miterlimit="10" stroke-linecap="round" stroke-linejoin="round"/>
<path d="M197.02 312.7C213.379 312.7 226.64 299.439 226.64 283.08C226.64 266.721 213.379 253.46 197.02 253.46C180.661 253.46 167.4 266.721 167.4 283.08C167.4 299.439 180.661 312.7 197.02 312.7Z" stroke="#6A0BFF" stroke-width="12" stroke-miterlimit="10" stroke-linecap="round" stroke-linejoin="round"/>
<path d="M263.09 229.62C279.449 229.62 292.71 216.359 292.71 200C292.71 183.641 279.449 170.38 263.09 170.38C246.731 170.38 233.47 183.641 233.47 200C233.47 216.359 246.731 229.62 263.09 229.62Z" stroke="#6A0BFF" stroke-width="12" stroke-miterlimit="10" stroke-linecap="round" stroke-linejoin="round"/>
</svg>
